<?xml version="1.0" encoding="utf-8"?>
<!-- Generator: Adobe Illustrator 22.0.1, SVG Export Plug-In . SVG Version: 6.00 Build 0)  -->
<svg version="1.1" id="Layer_1" xmlns="http://www.w3.org/2000/svg" xmlns:xlink="http://www.w3.org/1999/xlink" x="0px" y="0px"
	 viewBox="0 0 150 32.4" style="enable-background:new 0 0 150 32.4;" xml:space="preserve">
<style type="text/css">
	.st0{fill:#008FD3;}
</style>
<title>Group 13</title>
<desc>Created with Sketch.</desc>
<g id="ppta_final">
	<g id="carrito-noi-copy-3" transform="translate(-795.000000, -662.000000)">
		<g id="Group-11" transform="translate(350.000000, 633.000000)">
			<g id="Group-3" transform="translate(145.000000, 26.000000)">
				<g id="Group-12" transform="translate(300.000000, 0.000000)">
					<g id="Group-6">
						<g id="Group-13">
							<path id="home---FontAwesome" class="st0" d="M85.6,13.4v6.7c0,0.5-0.4,0.9-0.9,0.9h-5.4v-5.4h-3.6V21h-5.4
								c-0.5,0-0.9-0.4-0.9-0.9v-6.7c0,0,0-0.1,0-0.1l8-6.6L85.6,13.4C85.6,13.4,85.6,13.4,85.6,13.4z M88.8,12.4l-0.9,1
								c-0.1,0.1-0.2,0.1-0.3,0.2h0c-0.1,0-0.2,0-0.3-0.1l-9.7-8l-9.7,8c-0.1,0.1-0.2,0.1-0.3,0.1c-0.1,0-0.2-0.1-0.3-0.2l-0.9-1
								c-0.2-0.2-0.1-0.5,0.1-0.6l10-8.4c0.6-0.5,1.5-0.5,2.1,0l3.4,2.8V3.6c0-0.3,0.2-0.4,0.4-0.4h2.7c0.3,0,0.4,0.2,0.4,0.4v5.7
								l3.1,2.5C88.9,12,88.9,12.3,88.8,12.4z"/>
							<rect id="Rectangle-11-Copy-2" y="32" class="st0" width="150" height="3"/>
						</g>
					</g>
				</g>
			</g>
		</g>
	</g>
</g>
</svg>
