<?xml version="1.0" encoding="UTF-8"?>
<svg width="150px" height="32px" viewBox="0 0 150 32" version="1.1" xmlns="http://www.w3.org/2000/svg" xmlns:xlink="http://www.w3.org/1999/xlink">
    <!-- Generator: Sketch 49 (51002) - http://www.bohemiancoding.com/sketch -->
    <title>Group 8</title>
    <desc>Created with Sketch.</desc>
    <defs></defs>
    <g id="ppta_final" stroke="none" stroke-width="1" fill="none" fill-rule="evenodd">
        <g id="carrito-noi-copy-3" transform="translate(-495.000000, -660.000000)" fill="#008FD3">
            <g id="Group-11" transform="translate(350.000000, 633.000000)">
                <g id="Group-3" transform="translate(145.000000, 26.000000)">
                    <g id="Group-10" transform="translate(0.000000, 1.000000)">
                        <g id="Group-8">
                            <rect id="Rectangle-11" x="0" y="29" width="150" height="3"></rect>
                            <path d="M70.6738281,3.91015625 C72.8222764,1.76170801 75.4101411,0.6875 78.4375,0.6875 C81.4648589,0.6875 84.0445857,1.75357007 86.1767578,3.88574219 C88.3089299,6.01791431 89.375,8.59764111 89.375,11.625 C89.375,14.6523589 88.3089299,17.2320857 86.1767578,19.3642578 C84.0445857,21.4964299 81.4648589,22.5625 78.4375,22.5625 C75.4101411,22.5625 72.8304143,21.4964299 70.6982422,19.3642578 C68.5660701,17.2320857 67.5,14.6523589 67.5,11.625 C67.5,8.59764111 68.5579321,6.02605225 70.6738281,3.91015625 Z M84.0527344,7.96289062 C84.0852866,7.93033838 84.1015625,7.88151074 84.1015625,7.81640625 C84.1015625,7.71874951 84.0852866,7.653646 84.0527344,7.62109375 L82.5390625,6.44921875 C82.5065103,6.4166665 82.4414067,6.40039062 82.34375,6.40039062 C82.2786455,6.40039062 82.2298179,6.4166665 82.1972656,6.44921875 L76.7773438,13.4316406 C75.3450449,12.0644463 74.6126304,11.3645835 74.5800781,11.3320312 C74.4824214,11.2343745 74.3847661,11.1855469 74.2871094,11.1855469 C74.2545571,11.1855469 74.1894536,11.2343745 74.0917969,11.3320312 L72.8222656,12.6015625 C72.7897134,12.6341147 72.7734375,12.6992183 72.7734375,12.796875 C72.7734375,12.8619795 72.7897134,12.9108071 72.8222656,12.9433594 L72.9199219,12.9921875 C75.4589971,15.433606 76.7447915,16.6705728 76.7773438,16.703125 C76.8750005,16.8007817 76.9563799,16.8496094 77.0214844,16.8496094 C77.0865889,16.8496094 77.1679683,16.8007817 77.265625,16.703125 L84.0527344,7.96289062 Z" id="ion-checkmark-circled---Ionicons"></path>
                        </g>
                    </g>
                </g>
            </g>
        </g>
    </g>
</svg>