<?xml version="1.0" encoding="utf-8"?>
<!-- Generator: Adobe Illustrator 22.0.1, SVG Export Plug-In . SVG Version: 6.00 Build 0)  -->
<svg version="1.1" id="Layer_1" xmlns="http://www.w3.org/2000/svg" xmlns:xlink="http://www.w3.org/1999/xlink" x="0px" y="0px"
	 viewBox="0 0 150 32.2" style="enable-background:new 0 0 150 32.2;" xml:space="preserve">
<style type="text/css">
	.st0{fill:#D8D8D8;}
</style>
<title>Group 7</title>
<desc>Created with Sketch.</desc>
<g id="ppta_final">
	<g id="carrito-noi-copy-3" transform="translate(-645.000000, -662.000000)">
		<g id="Group-11_1_" transform="translate(350.000000, 633.000000)">
			<g id="Group-3" transform="translate(145.000000, 26.000000)">
				<g id="Group-11" transform="translate(150.000000, 0.000000)">
					<g id="Group-7">
						<path id="truck---FontAwesome" class="st0" d="M74.9,19.2c0-1-0.8-1.8-1.8-1.8s-1.8,0.8-1.8,1.8c0,1,0.8,1.8,1.8,1.8
							S74.9,20.2,74.9,19.2z M69.6,12.1h5.4V8.5h-2.2c-0.1,0-0.3,0.1-0.3,0.1l-2.7,2.7c0,0-0.1,0.3-0.1,0.3V12.1z M87.4,19.2
							c0-1-0.8-1.8-1.8-1.8c-1,0-1.8,0.8-1.8,1.8c0,1,0.8,1.8,1.8,1.8C86.6,21,87.4,20.2,87.4,19.2z M91,4v14.3c0,1-1.1,0.9-1.8,0.9
							c0,2-1.6,3.6-3.6,3.6s-3.6-1.6-3.6-3.6h-5.4c0,2-1.6,3.6-3.6,3.6s-3.6-1.6-3.6-3.6h-0.9c-0.7,0-1.8,0.1-1.8-0.9
							c0-0.5,0.4-0.9,0.9-0.9V13c0-1-0.1-2.1,0.6-2.9l2.8-2.8c0.3-0.3,1-0.6,1.5-0.6h2.2V4c0-0.5,0.4-0.9,0.9-0.9h14.3
							C90.6,3.1,91,3.5,91,4z"/>
						<rect id="Rectangle-11-Copy" y="32" class="st0" width="150" height="3"/>
					</g>
				</g>
			</g>
		</g>
	</g>
</g>
</svg>
