<?xml version="1.0" encoding="UTF-8"?>
<svg width="33px" height="25px" viewBox="0 0 33 25" version="1.1" xmlns="http://www.w3.org/2000/svg" xmlns:xlink="http://www.w3.org/1999/xlink">
    <!-- Generator: Sketch 49 (51002) - http://www.bohemiancoding.com/sketch -->
    <title>slate</title>
    <desc>Created with Sketch.</desc>
    <defs>
        <linearGradient x1="100%" y1="92.450574%" x2="100%" y2="0%" id="linearGradient-1">
            <stop stop-color="#272727" offset="0%"></stop>
            <stop stop-color="#626262" offset="100%"></stop>
        </linearGradient>
    </defs>
    <g id="ppta_final" stroke="none" stroke-width="1" fill="none" fill-rule="evenodd">
        <g id="Configuracion-noi-Copy-8" transform="translate(-525.000000, -495.000000)">
            <g id="Group-11" transform="translate(360.000000, 495.000000)">
                <g id="slate" transform="translate(165.000000, 0.000000)">
                    <g id="Group-3">
                        <path d="M0,0 L29,0 C31.209139,-4.05812251e-16 33,1.790861 33,4 L33,21 C33,23.209139 31.209139,25 29,25 L0,25 L0,0 Z" id="Rectangle-Copy-3" fill="url(#linearGradient-1)"></path>
                        <path d="M21.7701027,12.1249942 L16.8013468,17.0870537 C16.6339359,17.2544646 16.3660784,17.2544646 16.1986675,17.0870537 L11.2299116,12.1249942 C11.0625007,11.9575833 11.0625007,11.6830294 11.2299116,11.5156185 L12.3415201,10.4107064 C12.508931,10.2432955 12.7767884,10.2432955 12.9441993,10.4107064 L16.5000072,13.9665142 L20.055815,10.4107064 C20.2232259,10.2432955 20.4910833,10.2432955 20.6584943,10.4107064 L21.7701027,11.5156185 C21.9375136,11.6830294 21.9375136,11.9575833 21.7701027,12.1249942 Z" id="ï¸" fill="#FFFFFF"></path>
                    </g>
                </g>
            </g>
        </g>
    </g>
</svg>